<?xml version="1.0" encoding="utf-8"?>
<!-- Generator: Adobe Illustrator 22.0.0, SVG Export Plug-In . SVG Version: 6.00 Build 0)  -->
<svg version="1.1" id="Layer_1" xmlns="http://www.w3.org/2000/svg" xmlns:xlink="http://www.w3.org/1999/xlink" x="0px" y="0px"
	 viewBox="0 0 12.4 65.2" style="enable-background:new 0 0 12.4 65.2;" xml:space="preserve">
<style type="text/css">
	.st0{fill:#FFFFFF;}
</style>
<path class="st0" d="M12.3,55.1c-0.2-0.3-0.4-0.4-0.7-0.4c-1.4,0-2.9,0-4.3,0V0.1h-2v54.7c-1.4,0-2.9,0-4.3,0c-0.1,0-0.2,0-0.2,0
	c-0.2,0-0.3,0.1-0.4,0.3c-0.2,0.3-0.2,0.6,0,0.9c1.5,2.6,3.1,5.1,4.6,7.7C5,64.1,5.3,64.5,5.5,65c0.2,0.3,0.4,0.4,0.8,0.4
	c0.3,0,0.5-0.2,0.6-0.4c1.7-2.9,3.5-5.8,5.2-8.7c0.1-0.2,0.2-0.3,0.3-0.5c0-0.1,0-0.2,0-0.3C12.3,55.3,12.3,55.2,12.3,55.1z"/>
</svg>
