<svg width="46" height="46" viewBox="0 0 46 46" fill="none" xmlns="http://www.w3.org/2000/svg">
<g clip-path="url(#clip0)">
<path d="M2.94655 34.7057C4.96911 35.7968 21.146 44.5325 23.1686 45.6236C23.3928 45.7443 23.6437 45.8054 23.8945 45.8054C24.1446 45.8054 24.3962 45.7443 24.6205 45.6236C26.6423 44.5325 42.8199 35.7968 44.8418 34.7057C45.2867 34.465 45.5598 34.0229 45.5598 33.545C45.5598 31.3794 45.5598 14.0539 45.5598 11.8883C45.5598 11.4024 45.278 10.9546 44.8224 10.7182C42.8005 9.66305 26.6229 1.22637 24.601 0.171961C24.1619 -0.0573203 23.6264 -0.0573203 23.1873 0.171961C21.1654 1.22637 4.98852 9.66305 2.96595 10.7182C2.51098 10.9546 2.22852 11.4031 2.22852 11.8883C2.22852 11.8883 2.22852 31.3794 2.22852 33.545C2.22852 34.0229 2.50164 34.465 2.94655 34.7057ZM6.55611 33.55C16.9593 27.979 22.7388 24.884 23.8945 24.2652C26.5503 25.6876 39.983 32.8816 41.2329 33.55C38.9207 34.7977 33.1412 37.9178 23.8945 42.911C20.4265 41.0386 8.28973 34.4858 6.55611 33.55ZM31.1165 25.0342V15.776L36.8938 18.8652V28.1292L31.1165 25.0342ZM39.7825 29.6759C39.7825 22.7235 39.7825 18.8616 39.7825 18.0897C39.7825 17.6088 39.5065 17.1654 39.0587 16.9267C38.1919 16.4631 31.2588 12.7558 30.392 12.2922C29.945 12.0536 29.3951 12.0543 28.9488 12.2944C28.5017 12.5337 28.2271 12.9765 28.2271 13.4566C28.2271 14.1243 28.2271 17.4687 28.2271 23.4875C28.0345 23.3847 27.0721 22.8694 25.3385 21.9407V3.63418L42.6711 12.6732V31.2227C40.9382 30.2948 39.9751 29.7787 39.7825 29.6759ZM22.4498 21.9407L5.11717 31.2227V12.6732L22.4498 3.63418V21.9407Z" fill="#fa1707"/>
<path d="M18.8389 17.7165C19.2859 17.4764 19.5612 17.0337 19.5612 16.5543C19.5612 15.934 19.5612 10.976 19.5612 10.3565C19.5612 9.87707 19.2866 9.4336 18.8396 9.19426C18.394 8.9542 17.8434 8.95348 17.3963 9.1921C16.5302 9.6557 9.59717 13.3616 8.73036 13.8237C8.28258 14.0638 8.00586 14.5073 8.00586 14.9867C8.00586 15.6069 8.00586 20.5656 8.00586 21.1859C8.00586 21.6646 8.28114 22.108 8.7282 22.3481C9.17527 22.5874 9.72583 22.5874 10.1729 22.3481C11.3869 21.6955 16.3642 19.044 18.8389 17.7165ZM16.6725 12.6759C16.6725 14.5374 16.6725 15.5717 16.6725 15.7794C15.0467 16.6491 12.7252 17.8883 10.8945 18.865C10.8945 18.4518 10.8945 17.4175 10.8945 15.7636C12.0503 15.1462 16.0947 12.9849 16.6725 12.6759Z" fill="#fa1707"/>
<path d="M25.3398 28.2706C25.3398 27.5296 24.6929 26.9287 23.8958 26.9287C23.098 26.9287 22.4511 27.5296 22.4511 28.2706C22.4511 28.5387 22.4511 29.8806 22.4511 32.2963C18.1178 32.2963 15.7107 32.2963 15.2291 32.2963C14.432 32.2963 13.7852 32.8972 13.7852 33.6383C13.7852 34.3786 14.432 34.9802 15.2291 34.9802C15.7107 34.9802 18.1178 34.9802 22.4511 34.9802C22.4511 37.3959 22.4511 38.7378 22.4511 39.0059C22.4511 39.7469 23.098 40.3478 23.8958 40.3478C24.6929 40.3478 25.3398 39.7469 25.3398 39.0059C25.3398 38.7378 25.3398 37.3959 25.3398 34.9802C29.6731 34.9802 32.0802 34.9802 32.5618 34.9802C33.3589 34.9802 34.0065 34.3786 34.0065 33.6383C34.0065 32.8972 33.3589 32.2963 32.5618 32.2963C31.5987 32.2963 29.1916 32.2963 25.3398 32.2963C25.3398 29.8806 25.3398 28.5387 25.3398 28.2706Z" fill="#fa1707"/>
</g>
<defs>
<clipPath id="clip0">
<rect width="46" height="46" fill="white"/>
</clipPath>
</defs>
</svg>
