<svg width="46" height="46" viewBox="0 0 46 46" fill="none" xmlns="http://www.w3.org/2000/svg">
<path d="M17.8982 16.3516V19.0469H6.73242V16.3516H17.8982Z" fill="#EC4242"/>
<path d="M23.4807 21.7422V24.4375H6.73242V21.7422H23.4807Z" fill="#EC4242"/>
<path d="M10.9199 40.6094C13.2278 40.6094 15.1066 38.7952 15.1066 36.5664C15.1066 34.3376 13.2278 32.5234 10.9199 32.5234C8.61123 32.5234 6.73242 34.3376 6.73242 36.5664C6.73242 38.7952 8.61123 40.6094 10.9199 40.6094ZM10.9199 35.2187C11.6889 35.2187 12.315 35.8232 12.315 36.5664C12.315 37.3096 11.6889 37.9141 10.9199 37.9141C10.1501 37.9141 9.52405 37.3096 9.52405 36.5664C9.52405 35.8232 10.1501 35.2187 10.9199 35.2187Z" fill="#EC4242"/>
<path d="M43.0205 25.7852C43.0205 22.5314 40.6191 19.8088 37.4379 19.1827C37.4379 18.4956 37.4379 15.06 37.4379 8.87584C36.8248 8.28431 33.7615 5.32522 28.2458 0H1.15039V46H45.8121V32.5234H43.0205C43.0205 28.331 43.0205 26.0849 43.0205 25.7852ZM37.4379 32.5234C37.4379 26.1941 37.4379 22.6773 37.4379 21.9743C39.0623 22.5299 40.2295 24.0285 40.2295 25.7852C40.2295 26.6836 40.2295 28.9297 40.2295 32.5234C39.6711 32.5234 37.7168 32.5234 37.4379 32.5234ZM31.8554 32.5234C31.8554 28.4805 31.8554 26.2344 31.8554 25.7852C31.8554 24.0285 33.0219 22.5299 34.6463 21.9743C34.6463 23.3809 34.6463 26.8978 34.6463 32.5234C34.0885 32.5234 32.1343 32.5234 31.8554 32.5234ZM32.6733 8.08594H29.0638V4.60072L32.6733 8.08594ZM3.94202 2.69531H26.2729V10.7812C31.2969 10.7812 34.0885 10.7812 34.6463 10.7812C34.6463 15.8226 34.6463 18.6228 34.6463 19.1827C31.4651 19.8088 29.0638 22.5314 29.0638 25.7852C29.0638 26.2344 29.0638 28.4805 29.0638 32.5234C28.8776 32.5234 27.9475 32.5234 26.2729 32.5234V43.3047H3.94202V2.69531ZM29.0638 43.3047V35.2187H43.0205V43.3047H29.0638Z" fill="#EC4242"/>
<path d="M37.4381 37.9141V40.6094H34.6465V37.9141H37.4381Z" fill="#EC4242"/>
</svg>
