<svg width="46" height="46" viewBox="0 0 46 46" fill="none" xmlns="http://www.w3.org/2000/svg">
<path d="M40.8974 19.2546C40.8837 19.2409 40.3892 18.7033 39.6202 18.9082C39.6202 17.1508 39.6202 3.09422 39.6202 1.33687C39.6202 0.598719 39.0265 0 38.2934 0C34.5968 0 5.0253 0 1.32877 0C0.595641 0 0.00195312 0.598719 0.00195312 1.33687C0.00195312 5.06072 0.00195312 34.8464 0.00195312 38.5703C0.00195312 39.3084 0.595641 39.9072 1.32877 39.9072C3.04011 39.9072 16.7323 39.9072 18.4436 39.9072C28.1755 52.5938 47.8779 42.4192 43.1758 26.951C43.3505 26.7749 44.7441 25.3704 44.9181 25.1943C45.1668 24.9442 45.3076 24.6043 45.3076 24.2499C45.3076 23.8948 45.1668 23.5556 44.9181 23.304C44.5163 22.8994 41.2999 19.6593 40.8974 19.2546ZM22.749 2.67447V7.15947H16.8732V2.67447H22.749ZM2.6563 2.67447C9.59367 2.67447 13.4483 2.67447 14.2188 2.67447C14.2188 6.16759 14.2188 8.10894 14.2188 8.49706C14.2188 9.23594 14.8125 9.83394 15.5464 9.83394C16.3988 9.83394 23.2233 9.83394 24.0765 9.83394C24.8096 9.83394 25.4033 9.23594 25.4033 8.49706C25.4033 8.10894 25.4033 6.16759 25.4033 2.67447C26.559 2.67447 35.8101 2.67447 36.9658 2.67447C36.9658 12.5738 36.9658 18.0744 36.9658 19.1741C25.1144 12.1835 11.3295 24.5813 16.8753 37.2327C14.98 37.2327 10.2398 37.2327 2.6563 37.2327C2.6563 32.6248 2.6563 21.1054 2.6563 2.67447ZM36.3427 21.9506C35.9042 22.3927 33.7113 24.6021 29.7632 28.5782C28.4738 27.2794 27.7572 26.5585 27.6149 26.4141C27.096 25.8915 26.255 25.8922 25.7375 26.4141C25.335 26.8187 22.1179 30.0596 21.7161 30.4642C21.1979 30.9867 21.1979 31.8334 21.7161 32.3552C22.427 33.0711 28.1137 38.7988 28.8245 39.5147C29.3428 40.0373 30.183 40.0373 30.7012 39.5147C31.7326 38.4776 39.9774 30.171 41.0088 29.1338C42.4794 36.1625 36.9069 43.0416 29.7632 42.9611C23.4397 42.9611 18.2949 37.7797 18.2949 31.4094C18.2165 22.1641 28.8928 16.5794 36.3427 21.9506ZM24.5315 31.4094C25.818 30.1142 26.5325 29.3947 26.6755 29.2502C27.9649 30.549 28.6808 31.2707 28.8245 31.4151C29.3428 31.9369 30.1837 31.9362 30.7012 31.4151C31.3179 30.7934 34.4042 27.6848 39.9587 22.0901C40.1017 22.2338 40.8162 22.954 42.102 24.2499L29.7632 36.6792L24.5315 31.4094Z" fill="#fa1707"/>
</svg>
