<svg width="46" height="46" viewBox="0 0 46 46" fill="none" xmlns="http://www.w3.org/2000/svg">
<path d="M34.4509 5.31947C34.4509 2.38697 32.0905 0 29.1896 0C26.288 0 23.9284 2.38697 23.9284 5.31947C23.5338 5.31947 20.377 5.31947 19.9824 5.31947C9.0761 5.31947 0.165039 14.3297 0.165039 25.3553C0.165039 36.3824 9.07682 45.3919 19.9824 45.3919C30.8894 45.3919 39.7998 36.3817 39.7998 25.3553C39.7998 24.9564 39.7998 21.7652 39.7998 21.3663C42.7007 21.3663 45.061 18.9793 45.061 16.0468C45.061 13.1143 42.7007 10.7273 39.7998 10.7273C39.7998 10.0064 39.7998 8.20309 39.7998 5.31947C36.5906 5.31947 34.8081 5.31947 34.4509 5.31947ZM21.2977 13.3874C22.7482 13.3874 23.9284 14.5806 23.9284 16.0468C23.9284 17.5131 22.7482 18.7062 21.2977 18.7062C20.5711 18.7062 20.2484 18.4539 18.6671 17.9199C18.6671 18.3267 18.6671 20.3629 18.6671 24.0257C17.0887 24.0257 16.2119 24.0257 16.0365 24.0257C16.0365 21.0932 13.6761 18.7062 10.7752 18.7062C7.87363 18.7062 5.51398 21.0932 5.51398 24.0257C5.24732 24.0257 3.11191 24.0257 2.84598 24.0257C3.48638 15.5027 10.2369 8.67747 18.6671 8.02987C18.6671 9.25822 18.6671 13.5592 18.6671 14.1737C20.2527 13.6383 20.5718 13.3874 21.2977 13.3874ZM8.1446 24.0257C8.1446 22.5594 9.32479 21.3663 10.7752 21.3663C12.2257 21.3663 13.4059 22.5594 13.4059 24.0257C13.4059 24.7588 13.1579 25.0815 12.6274 26.6857C13.0307 26.6857 15.0432 26.6857 18.6671 26.6857C18.6671 28.2814 18.6671 29.1676 18.6671 29.3451C15.7655 29.3451 13.4059 31.7321 13.4059 34.6646C13.4059 37.5971 15.7655 39.9841 18.6671 39.9841C18.6671 40.2536 18.6671 42.412 18.6671 42.6815C10.2369 42.0339 3.48638 35.2087 2.84598 26.6857C4.06066 26.6857 8.31494 26.6857 8.92229 26.6857C8.39257 25.0808 8.1446 24.7588 8.1446 24.0257ZM18.6671 37.324C17.2167 37.324 16.0365 36.1308 16.0365 34.6646C16.0365 33.1983 17.2167 32.0052 18.6671 32.0052C19.3945 32.0052 19.7172 32.2575 21.2977 32.7915C21.2977 32.384 21.2977 30.3485 21.2977 26.6857C22.8761 26.6857 23.753 26.6857 23.9284 26.6857C23.9284 29.6182 26.288 32.0052 29.1896 32.0052C32.0905 32.0052 34.4509 29.6175 34.4509 26.6843C34.7175 26.6843 36.8529 26.6857 37.1196 26.6857C36.4784 35.2087 29.7279 42.0339 21.2977 42.6815C21.2977 41.4532 21.2977 37.1522 21.2977 36.5377C19.7114 37.0731 19.3923 37.324 18.6671 37.324ZM37.1692 24.0257C33.4928 24.0257 31.4501 24.0257 31.0418 24.0257C31.5723 25.6306 31.8202 25.9526 31.8202 26.6857C31.8202 28.152 30.64 29.3451 29.1896 29.3451C27.7392 29.3451 26.559 28.152 26.559 26.6857C26.559 25.9526 26.8069 25.6299 27.3367 24.0257C26.9342 24.0257 24.9209 24.0257 21.2977 24.0257C21.2977 22.43 21.2977 21.5431 21.2977 21.3663C24.1986 21.3663 26.559 18.9793 26.559 16.0468C26.559 13.1143 24.1986 10.7273 21.2977 10.7273C21.2977 10.5441 21.2977 9.62838 21.2977 7.97884C24.9432 7.97884 26.9679 7.97884 27.3726 7.97884C26.8364 6.39759 26.559 5.9225 26.559 5.31947C26.559 3.85322 27.7392 2.65937 29.1896 2.65937C30.64 2.65937 31.8202 3.85322 31.8202 5.31947C31.8202 5.9225 31.5485 6.38034 31.0059 7.97884C31.417 7.97884 33.4719 7.97884 37.1692 7.97884C37.1692 11.7178 37.1692 13.795 37.1692 14.2104C38.7339 13.667 39.2039 13.3874 39.7998 13.3874C41.2502 13.3874 42.4304 14.5806 42.4304 16.0468C42.4304 17.5131 41.2502 18.7062 39.7998 18.7062C39.2039 18.7062 38.7511 18.4323 37.1692 17.8839C37.1692 18.2922 37.1692 20.3406 37.1692 24.0257Z" fill="#fa1707"/>
</svg>
