<svg width="46" height="46" viewBox="0 0 46 46" fill="none" xmlns="http://www.w3.org/2000/svg">
<path d="M22.9012 17.8329C20.8024 17.8329 18.8223 18.8808 17.5616 20.613C17.2906 20.613 15.1207 20.613 14.8497 20.613C14.1094 20.613 13.5078 21.2354 13.5078 22.0031C13.5078 22.5594 13.5078 27.0077 13.5078 27.564C13.5078 28.3317 14.1094 28.9541 14.8497 28.9541C15.1207 28.9541 17.2906 28.9541 17.5616 28.9541C18.8223 30.6863 20.8031 31.7349 22.9012 31.7349C24.9992 31.7349 26.9808 30.6863 28.2415 28.9541C28.5124 28.9541 30.6816 28.9541 30.9526 28.9541C31.6936 28.9541 32.2945 28.3317 32.2945 27.564C32.2945 27.0077 32.2945 22.5594 32.2945 22.0031C32.2945 21.6344 32.1529 21.2814 31.9021 21.0198C31.6498 20.7596 31.3084 20.613 30.9526 20.613C30.4107 20.613 28.7834 20.613 28.2415 20.613C26.9808 18.8808 24.9999 17.8329 22.9012 17.8329ZM27.5249 26.174C27.0469 26.174 26.6049 26.437 26.3641 26.8654C25.6295 28.1728 24.3351 28.9541 22.9012 28.9541C21.4673 28.9541 20.1728 28.1728 19.4382 26.8654C19.1974 26.437 18.7554 26.174 18.2782 26.174C18.1394 26.174 17.4437 26.174 16.1916 26.174C16.1916 25.8958 16.1916 23.6713 16.1916 23.3931C17.4437 23.3931 18.1394 23.3931 18.2782 23.3931C18.7554 23.3931 19.1974 23.1301 19.4382 22.7031C20.1728 21.3943 21.468 20.613 22.9012 20.613C24.3351 20.613 25.6295 21.3943 26.3641 22.7017C26.6049 23.1301 27.0469 23.3931 27.5249 23.3931C27.6629 23.3931 28.3593 23.3931 29.6107 23.3931C29.6107 23.5786 29.6107 24.5058 29.6107 26.174C28.3126 26.174 27.6169 26.174 27.5249 26.174Z" fill="#fa1707"/>
<path d="M0 2.54009C0 6.71099 0 40.0761 0 44.247C0 45.0139 0.600875 45.6371 1.34191 45.6371C5.65369 45.6371 40.1494 45.6371 44.4612 45.6371C45.2022 45.6371 45.8031 45.0139 45.8031 44.247C45.8031 40.0761 45.8031 6.71099 45.8031 2.54009C45.8031 1.77318 45.2022 1.15002 44.4612 1.15002C35.8376 1.15002 5.65369 1.15002 1.34191 1.15002C0.600875 1.15002 0 1.77318 0 2.54009ZM23.5017 9.63774C23.143 9.45231 22.6845 9.43937 22.3014 9.63774C22.0735 9.75634 20.9314 10.3479 18.8758 11.4123C18.8758 10.9135 18.8758 8.41946 18.8758 3.93015H26.9273V11.4123C24.7962 10.3083 23.6541 9.71681 23.5017 9.63774ZM2.68381 42.8562V3.93015C10.7892 3.93015 15.2914 3.93015 16.192 3.93015C16.192 9.76927 16.192 13.013 16.192 13.662C16.192 14.6848 17.2371 15.3698 18.1341 14.9055C18.4517 14.7409 20.0409 13.9179 22.9015 12.4358C25.7629 13.9179 27.3513 14.7409 27.669 14.9055C28.5689 15.3712 29.6111 14.6826 29.6111 13.662C29.6111 13.013 29.6111 9.76927 29.6111 3.93015C30.5117 3.93015 35.0146 3.93015 43.1192 3.93015V42.8562H2.68381Z" fill="#fa1707"/>
<path d="M29.6113 38.6861C29.6113 39.453 30.2122 40.0761 30.9532 40.0761C31.7582 40.0761 38.1997 40.0761 39.0047 40.0761C39.7457 40.0761 40.3466 39.453 40.3466 38.6861C40.3466 37.9184 39.7457 37.2953 39.0047 37.2953C37.3947 37.2953 31.7582 37.2953 30.9532 37.2953C30.2122 37.2953 29.6113 37.9184 29.6113 38.6861Z" fill="#fa1707"/>
<path d="M39.0047 34.5151C39.7457 34.5151 40.3466 33.8927 40.3466 33.125C40.3466 32.3574 39.7457 31.735 39.0047 31.735C38.1997 31.735 31.7582 31.735 30.9532 31.735C30.2122 31.735 29.6113 32.3574 29.6113 33.125C29.6113 33.8927 30.2122 34.5151 30.9532 34.5151C31.7582 34.5151 38.1997 34.5151 39.0047 34.5151Z" fill="#    background: #fa1707"/>
<path d="M5.45703 33.1251C5.45703 33.6814 5.45703 38.1297 5.45703 38.686C5.45703 39.4529 6.05862 40.0761 6.79894 40.0761C7.60466 40.0761 14.0454 40.0761 14.8504 40.0761C15.5914 40.0761 16.1923 39.4529 16.1923 38.686C16.1923 38.1297 16.1923 33.6814 16.1923 33.1251C16.1923 32.3574 15.5914 31.735 14.8504 31.735C13.2404 31.735 7.60466 31.735 6.79894 31.735C6.05862 31.735 5.45703 32.3574 5.45703 33.1251ZM8.14084 37.2953V34.5151H13.5085V37.2953H8.14084Z" fill="background: #fa1707"/>
</svg>
