<?xml version="1.0" encoding="UTF-8"?>
<!DOCTYPE svg PUBLIC "-//W3C//DTD SVG 1.1//EN" "http://www.w3.org/Graphics/SVG/1.1/DTD/svg11.dtd">
<!-- Creator: CorelDRAW 2021 (64-Bit Evaluation Version) -->
<svg xmlns="http://www.w3.org/2000/svg" xml:space="preserve" width="5in" height="5in" version="1.1" style="shape-rendering:geometricPrecision; text-rendering:geometricPrecision; image-rendering:optimizeQuality; fill-rule:evenodd; clip-rule:evenodd"
viewBox="0 0 5000 5000"
 xmlns:xlink="http://www.w3.org/1999/xlink"
 xmlns:xodm="http://www.corel.com/coreldraw/odm/2003">
 <defs>
  <style type="text/css">
   <![CDATA[
    .str0 {stroke:#FEFEFE;stroke-width:55.56;stroke-miterlimit:2.61313}
    .str1 {stroke:#FEFEFE;stroke-width:56.65;stroke-linecap:square;stroke-linejoin:round;stroke-miterlimit:2.61313}
    .fil3 {fill:#FEFEFE}
    .fil0 {fill:#282829}
    .fil1 {fill:#fe9780}
    .fil2 {fill:white}
   ]]>
  </style>
 </defs>
 <g id="Layer_x0020_1">
  <metadata id="CorelCorpID_0Corel-Layer"/>
  <g>
   <path class="fil0" d="M2495.85 347.02c606.91,0 1156.38,246.01 1554.12,643.75 397.74,397.74 643.75,947.21 643.75,1554.12 0,606.91 -246.01,1156.38 -643.75,1554.12 -397.74,397.74 -947.21,643.75 -1554.12,643.75 -606.91,0 -1156.38,-246.01 -1554.12,-643.75 -397.74,-397.74 -643.75,-947.21 -643.75,-1554.12 0,-606.91 246.01,-1156.38 643.75,-1554.12 397.74,-397.74 947.21,-643.75 1554.12,-643.75zm0 109.2c1153.54,0 2088.67,935.13 2088.67,2088.67 0,1153.54 -935.13,2088.67 -2088.67,2088.67 -1153.54,0 -2088.67,-935.13 -2088.67,-2088.67 0,-1153.54 935.13,-2088.67 2088.67,-2088.67z"/>
  </g>
  <circle class="fil1 str0" cx="2495.85" cy="2544.89" r="2060.67"/>
  <path class="fil2 str1" d="M2781.76 2335.56c110.75,-4.66 101.37,-109.98 180.31,-103.2 104.44,8.98 36.83,-57.23 235.51,-36.58 91.2,9.47 250.91,50.94 279.33,142.7 32.06,103.54 22.76,49.6 3.72,105.02 147.8,119.15 252.31,185.47 444.24,224.5l193.17 33.49c-32.1,18.26 -65.95,50.81 -98.33,75.81 -33.65,25.98 -63.59,50.95 -96.55,77.53l-1155.36 932.35c-40.55,33.01 -157.9,133.42 -192.46,151.04 0.4,-185.15 -32.48,-100.48 -49.97,-177.88l-1.69 -1527.9c33.81,-0.88 69.37,2.68 101.94,0.87 44.83,-2.49 161.44,-53.89 156.15,102.24zm-1265.6 108.27c-7.91,-33.54 -21.35,-20.28 -12.88,-53.61l20.37 -53.06c11.04,-36.45 37.9,-57.43 66.43,-75.67 52.86,-33.8 141.52,-58.74 215.49,-66.31 189.6,-19.38 111.19,40.41 241.59,36.2 63.34,-2.04 71.61,106.88 171.2,103.33 -2.38,-61.94 4.83,-98.98 72.23,-110.22 0.15,-0.02 170.11,8.14 180.5,9.6 9.43,81.54 1.95,1133.51 1.95,1311.61 0,355.86 -7.45,184.33 -37.2,291.85 -8.82,31.87 -2.96,68.48 -5.01,101.83l-1346.63 -1089.14c-32.44,-26.83 -60.82,-49.78 -95.56,-78.22 -31.35,-25.66 -67.52,-49.54 -92.86,-77.86 248.5,-46.91 393,-42.9 620.38,-250.34zm949.08 -1148.08c0,0 7.64,778.62 7.63,854.67l-125.59 1.65 -10.08 -55.73c-67.32,17.45 -39.38,49.57 -154.7,20.16 -68.45,-17.46 -97.7,-32.15 -141.53,-65.64 -92.02,-70.27 -201.25,-73.57 -316.17,-19.11 -52.84,25.04 -76.69,52.15 -114.1,84.53 -199.05,172.2 -353.24,95.3 -370.38,246.44 35.94,-12.39 85.5,-39.29 57.92,53.22 -10.68,35.83 -39.6,66.72 -64.3,86.13 -76.3,60.02 -343.81,171.62 -441.56,135.52 -31.32,-11.57 -56.09,-46.26 -103.14,-40.47 -29.65,3.65 -15.05,18.89 -54.31,6.66 -26.52,-8.25 -25.15,-21.18 -48.37,-36.65 11.84,154.23 222.15,98.71 274.72,141.9l111.59 95.13c39.67,31.25 80.5,63.33 119.83,95.7l923.56 749.87c95.4,79.48 336.3,248.32 402.43,326.55 5.16,6.11 8.5,11.48 10.65,16.51 8.73,20.48 -2.34,35.45 8.26,71.81 0,0 38.63,-37.7 63.03,-59.84 0,0 48.03,48.04 72.87,71.17l1.53 -93.5c91.98,-54.85 1140.8,-931.44 1349.22,-1085.13l224 -182.07c55.11,-47.14 253.43,-4.99 265.15,-147.98 -51.31,28.57 -18.94,49.52 -94.68,32.27 -55.09,-12.54 -72.25,23.73 -109.2,36.76 -76.09,26.8 -172.95,-13.52 -235.35,-32.77 -75.59,-23.32 -149.23,-58.69 -207.22,-99.63 -41.22,-29.1 -95,-114.71 -62.54,-150.04 22.21,-24.17 20.15,1.8 54.93,6.24 -20.47,-123.41 -139.82,-104.43 -245.54,-158.18 -102.5,-52.1 -145.5,-123.46 -237.27,-168.64 -269.24,-132.58 -328.81,105.36 -534.12,94.24 -45.45,-2.46 -45.33,-20.3 -75.28,-29.98l-16.21 55.32 -126.7 1.9 -0.96 -858.97c0,0 -58.02,0 -58.02,0z"/>
  <polygon class="fil3" points="2500,992.73 2568.89,1177.78 2637.8,1362.83 2500,1362.83 2362.2,1362.83 2431.11,1177.78 "/>
 </g>
</svg>
